<?xml version="1.0" encoding="utf-8"?>
<!-- Generator: Adobe Illustrator 26.5.0, SVG Export Plug-In . SVG Version: 6.00 Build 0)  -->
<svg version="1.1" id="Layer_1" xmlns="http://www.w3.org/2000/svg" xmlns:xlink="http://www.w3.org/1999/xlink" x="0px" y="0px"
	 viewBox="0 0 576 512" style="enable-background:new 0 0 576 512;" xml:space="preserve">
<style type="text/css">
	.st0{fill:#FF9F00;}
</style>
<path class="st0" d="M316.9,18c-5.3-11-16.5-18-28.8-18s-23.4,7-28.8,18L195,150.3L51.4,171.5c-12,1.8-22,10.2-25.7,21.7
	s-0.7,24.2,7.9,32.7L137.8,329l-24.6,145.7c-2,12,3,24.2,12.9,31.3s23,8,33.8,2.3l128.3-68.5l128.3,68.5c10.8,5.7,23.9,4.9,33.8-2.3
	s14.9-19.3,12.9-31.3L438.5,329l104.2-103.1c8.6-8.5,11.7-21.2,7.9-32.7s-13.7-19.9-25.7-21.7l-143.7-21.2L316.9,18z"/>
</svg>
