<?xml version="1.0" encoding="utf-8"?>
<!-- Generator: Adobe Illustrator 27.9.0, SVG Export Plug-In . SVG Version: 6.00 Build 0)  -->
<svg version="1.1" id="Layer_1" xmlns="http://www.w3.org/2000/svg" xmlns:xlink="http://www.w3.org/1999/xlink" x="0px" y="0px"
	 viewBox="0 0 512 512" style="enable-background:new 0 0 512 512;" xml:space="preserve">
<style type="text/css">
	.st0{fill:#FFFFFF;}
</style>
<path class="st0" d="M167.2,17.7C172.6,6.8,183.7,0,195.8,0h120.4c12.1,0,23.2,6.8,28.6,17.7L352,32h96c17.7,0,32,14.3,32,32
	s-14.3,32-32,32H64c-17.7,0-32-14.3-32-32s14.3-32,32-32h96L167.2,17.7z M64,128h384v320c0,35.3-28.7,64-64,64H128
	c-35.3,0-64-28.7-64-64V128z M160,192c-8.8,0-16,7.2-16,16v224c0,8.8,7.2,16,16,16s16-7.2,16-16V208C176,199.2,168.8,192,160,192z
	 M256,192c-8.8,0-16,7.2-16,16v224c0,8.8,7.2,16,16,16c8.8,0,16-7.2,16-16V208C272,199.2,264.8,192,256,192z M352,192
	c-8.8,0-16,7.2-16,16v224c0,8.8,7.2,16,16,16s16-7.2,16-16V208C368,199.2,360.8,192,352,192z"/>
</svg>
